<svg xmlns="http://www.w3.org/2000/svg" width="32" height="32" viewBox="0 0 32 32" fill="rgb(255, 66, 105)">
<path d="M 9 9 c 0.6 0 1 -0.4 1 -1 V 4 c 0 -0.6 -0.4 -1 -1 -1 S 8 3.4 8 4 v 4 C 8 8.6 8.4 9 9 9 Z"/>
<path d="M 4 12 c 0.6 0 1 -0.4 1 -1 V 7 c 0 -0.6 -0.4 -1 -1 -1 S 3 6.4 3 7 v 4 C 3 11.6 3.4 12 4 12 Z"/>
<path d="M M 4 12 c 0.6 0 1 -0.4 1 -1 V 7 c 0 -0.6 -0.4 -1 -1 -1 S 3 6.4 3 7 v 4 C 3 11.6 3.4 12 4 12 Z"/>
<path d="M 14 12 c 0.6 0 1 -0.4 1 -1 V 7 c 0 -0.6 -0.4 -1 -1 -1 s -1 0.4 -1 1 v 4 C 13 11.6 13.4 12 14 12 Z"/>
<path d="M 23 14 h -5 H 1 c -0.6 0 -1 0.4 -1 1 v 3 c 0 1.7 1.3 3 3 3 h 13 c 1.7 0 3 -1.3 3 -3 v -1 h 4 c 0.6 0 1 -0.4 1 -1 v -1 C 24 14.4 23.6 14 23 14 Z"/>
</svg>