<svg xmlns="http://www.w3.org/2000/svg" width="20" height="20" viewBox="0 0 32 32" fill="white">
<path d="M 15.786 29.755 h -0.001 c -0.281 0 -0.537 -0.111 -0.724 -0.292 L 3.182 17.985 a 0.333 0.333 0 0 1 -0.046 -0.046 v -0.001 a 10.145 10.145 0 0 1 -2.608 -6.55 v -0.013 c 0 -5.035 3.861 -9.13 8.608 -9.13 a 8.154 8.154 0 0 1 6.763 3.699 l 0.019 0.031 c 1.463 -2.239 3.949 -3.705 6.778 -3.73 h 0.004 c 4.695 0 8.347 4.012 8.347 9.13 v 0.1 c 0 2.467 -0.888 4.728 -2.361 6.479 l 0.013 -0.015 l -0.068 0.073 L 16.486 29.49 a 1.04 1.04 0 0 1 -0.696 0.266 h -0.003 Z M 4.663 16.535 l 11.133 10.753 L 27.175 16.53 a 8.052 8.052 0 0 0 1.785 -5.073 v -0.086 v 0.004 c 0 -3.949 -2.749 -7.043 -6.261 -7.043 c -2.546 0 -4.826 1.68 -5.807 4.283 a 1.045 1.045 0 0 1 -1.949 0.007 l -0.002 -0.007 c -0.981 -2.603 -3.261 -4.283 -5.807 -4.283 c -3.595 0 -6.521 3.162 -6.521 7.043 a 8.176 8.176 0 0 0 2.058 5.168 l -0.007 -0.009 Z m 23.263 0.72 Z"/>
</svg>
